<?xml version="1.0" encoding="utf-8"?>
<!-- Generator: Adobe Illustrator 27.5.0, SVG Export Plug-In . SVG Version: 6.00 Build 0)  -->
<svg version="1.1" id="visual" xmlns="http://www.w3.org/2000/svg" xmlns:xlink="http://www.w3.org/1999/xlink" x="0px" y="0px"
	 viewBox="0 0 960 141" style="enable-background:new 0 0 960 141;" xml:space="preserve">
<style type="text/css">
	.st0{fill:#EEEEEE;}
	.st1{fill:#F9FBE7;}
	.st2{fill:#F6E1C0;}
	.st3{fill:#FCC2A5;}
	.st4{fill:#FEA1A1;}
</style>
<rect class="st0" width="960" height="140"/>
<path class="st1" d="M0,22l26.7-1.8c26.6-1.9,80-5.5,133.3-3s106.7,11.1,160,16.3s106.7,6.8,160,4.2c53.3-2.7,106.7-9.7,160-9.9
	c53.3-0.1,106.7,6.5,160,10.4c53.3,3.8,106.7,4.8,133.3,5.3L960,44v97h-26.7c-26.6,0-80,0-133.3,0s-106.7,0-160,0s-106.7,0-160,0
	s-106.7,0-160,0s-106.7,0-160,0s-106.7,0-133.3,0H0V22z"/>
<path class="st2" d="M0,66l26.7-1c26.6-1,80-3,133.3-6s106.7-7,160-5.8c53.3,1.1,106.7,7.5,160,10s106.7,1.1,160,0.1
	s106.7-1.6,160-5.6s106.7-11.4,133.3-15L960,39v102h-26.7c-26.6,0-80,0-133.3,0s-106.7,0-160,0s-106.7,0-160,0s-106.7,0-160,0
	s-106.7,0-160,0s-106.7,0-133.3,0H0V66z"/>
<path class="st3" d="M0,74l26.7-0.3c26.6-0.4,80-1,133.3,1.8s106.7,9.2,160,12s106.7,2.2,160,2.5s106.7,1.7,160-0.3
	s106.7-7.4,160-11.4s106.7-6.6,133.3-8L960,69v72h-26.7c-26.6,0-80,0-133.3,0s-106.7,0-160,0s-106.7,0-160,0s-106.7,0-160,0
	s-106.7,0-160,0s-106.7,0-133.3,0H0V74z"/>
<path class="st4" d="M0,106l26.7,0.8c26.6,0.9,80,2.5,133.3,1.2s106.7-5.7,160-6.8c53.3-1.2,106.7,0.8,160,4.1
	c53.3,3.4,106.7,8,160,10s106.7,1.4,160-1.1s106.7-6.9,133.3-9L960,103v38h-26.7c-26.6,0-80,0-133.3,0s-106.7,0-160,0
	s-106.7,0-160,0s-106.7,0-160,0s-106.7,0-160,0s-106.7,0-133.3,0H0V106z"/>
</svg>
