<?xml version="1.0" encoding="utf-8"?>
<!-- Generator: Adobe Illustrator 27.5.0, SVG Export Plug-In . SVG Version: 6.00 Build 0)  -->
<svg version="1.1" id="visual" xmlns="http://www.w3.org/2000/svg" xmlns:xlink="http://www.w3.org/1999/xlink" x="0px" y="0px"
	 viewBox="0 0 960 47" style="enable-background:new 0 0 960 47;" xml:space="preserve">
<style type="text/css">
	.st0{fill:#FEA1A1;}
	.st1{fill:#EEEEEE;}
	.st2{fill:#F8FBE7;}
</style>
<rect class="st0" width="960" height="47"/>
<path class="st1" d="M0,22l17.8,0.9c17.9,0.9,53.5,2.7,89,4s70.9,2,106.4,2.3c35.5,0.3,71.1,0.2,106.8-1.2c35.7-1.4,71.3-4,106.8-5
	c35.5-0.9,70.9,0,106.4,0.2c35.5,0.3,71.1,0.1,106.8,1c35.7,0.9,71.3,3,106.8,2.8s70.9-2.5,106.4-3.5s71.1-0.4,89,0l17.8,0.3V47
	h-17.8c-17.9,0-53.5,0-89,0s-70.9,0-106.4,0s-71.1,0-106.8,0s-71.3,0-106.8,0s-70.9,0-106.4,0s-71.1,0-106.8,0s-71.3,0-106.8,0
	s-70.9,0-106.4,0s-71.1,0-89,0H0V22z"/>
<path class="st2" d="M0,16l17.8,1.1c17.9,1.1,53.5,3.4,89,4.9s70.9,2.5,106.4,2.8c35.5,0.4,71.1,0.2,106.8-1.5s71.3-5,106.8-6.1
	c35.5-1.1,70.9-0.1,106.4,0.3s71.1,0.1,106.8,1.2c35.7,1.1,71.3,3.7,106.8,3.4s70.9-3.2,106.4-4.3c35.5-1.1,71.1-0.4,89,0l17.8,0.3
	V47h-17.8c-17.9,0-53.5,0-89,0s-70.9,0-106.4,0s-71.1,0-106.8,0s-71.3,0-106.8,0s-70.9,0-106.4,0s-71.1,0-106.8,0s-71.3,0-106.8,0
	s-70.9,0-106.4,0s-71.1,0-89,0H0V16z"/>
</svg>
