<?xml version="1.0" encoding="utf-8"?>
<!-- Generator: Adobe Illustrator 27.5.0, SVG Export Plug-In . SVG Version: 6.00 Build 0)  -->
<svg version="1.1" id="visual" xmlns="http://www.w3.org/2000/svg" xmlns:xlink="http://www.w3.org/1999/xlink" x="0px" y="0px"
	 viewBox="0 0 960 69" style="enable-background:new 0 0 960 69;" xml:space="preserve">
<style type="text/css">
	.st0{fill:#FCC2A5;}
	.st1{fill:#EEEEEE;}
</style>
<rect class="st0" width="960" height="69"/>
<path class="st1" d="M0,35l10.7-0.3c10.6-0.4,32-1,53.3-1.7s42.7-1.3,64,0.5s42.7,6.2,64,6.3c21.3,0.2,42.7-3.8,64-5.3
	s42.7-0.5,64-0.5s42.7-1,64,1.3c21.3,2.4,42.7,8,64,8.4c21.3,0.3,42.7-4.7,64-7.5c21.3-2.9,42.7-3.5,64-1.5s42.7,6.6,64,9.6
	s42.7,4.4,64,4.9s42.7,0.1,64-2.4s42.7-7.1,64-8.3s42.7,1.2,64,3.2s42.7,3.6,53.3,4.5L960,47v23h-10.7c-10.6,0-32,0-53.3,0
	s-42.7,0-64,0s-42.7,0-64,0s-42.7,0-64,0s-42.7,0-64,0s-42.7,0-64,0s-42.7,0-64,0s-42.7,0-64,0s-42.7,0-64,0s-42.7,0-64,0
	s-42.7,0-64,0s-42.7,0-64,0s-42.7,0-64,0s-42.7,0-64,0s-42.7,0-53.3,0H0V35z"/>
</svg>
