<?xml version="1.0" encoding="utf-8"?>
<!-- Generator: Adobe Illustrator 27.5.0, SVG Export Plug-In . SVG Version: 6.00 Build 0)  -->
<svg version="1.1" id="visual" xmlns="http://www.w3.org/2000/svg" xmlns:xlink="http://www.w3.org/1999/xlink" x="0px" y="0px"
	 viewBox="0 0 960 72" style="enable-background:new 0 0 960 72;" xml:space="preserve">
<style type="text/css">
	.st0{fill:#FEA1A1;}
	.st1{fill:#EEEEEE;}
</style>
<rect class="st0" width="960" height="72"/>
<path class="st1" d="M0,22l17.8,1.8c17.9,1.8,53.5,5.4,89,8s70.9,4,106.4,4.6C248.7,37,284.3,36.7,320,34
	c35.7-2.8,71.3-8.1,106.8-9.9s70.9-0.1,106.4,0.5s71.1,0.1,106.8,2c35.7,1.8,71.3,5.9,106.8,5.5s70.9-5.1,106.4-7s71.1-0.7,89,0
	l17.8,0.6V72h-17.8c-17.9,0-53.5,0-89,0s-70.9,0-106.4,0s-71.1,0-106.8,0s-71.3,0-106.8,0s-70.9,0-106.4,0s-71.1,0-106.8,0
	s-71.3,0-106.8,0s-70.9,0-106.4,0s-71.1,0-89,0H0V22z"/>
</svg>
